<svg id="Layer_1" data-name="Layer 1" xmlns="http://www.w3.org/2000/svg" viewBox="0 0 216.85 201.73"><defs><style>.cls-1{fill:#d5b43d;}.cls-2{fill:#d5b745;}.cls-3{fill:#d4b84c;}.cls-4{fill:#d3b749;}</style></defs><path class="cls-1" d="M201.67,50.08l.59.05c.5.5,1,.71,1.61.13,2,.08,4.06.14,6.09.26a74.74,74.74,0,0,1,8.07.56,81,81,0,0,1,8.36,2.08,16.37,16.37,0,0,1,3.39,1.3,68.25,68.25,0,0,1,11.56,7.35,54,54,0,0,1,9.47,10.75,47.58,47.58,0,0,1,3.41,6.58,42,42,0,0,1,3.93,15.47c.25,3.51.16,7,.22,10.56,0,1.93,0,3.85,0,5.78,0,3.3,0,6.6,0,9.9,0,2.81,0,5.62,0,8.43,0,2.37-.07,4.73-.06,7.1,0,4.3.08,8.59.13,12.88s.1,8.59.18,12.88a3.08,3.08,0,0,0,.39,1c-.09,1.08-.18,2.16-.26,3.24a15.08,15.08,0,0,0-.27,2.1c0,3.42.07,6.83.1,10.25,0,3.69,0,7.38,0,11.07,0,1.42.09,2.85.08,4.27,0,2.09-.08,4.18-.11,6.28a67.14,67.14,0,0,1-.14,7.1,54.26,54.26,0,0,1-3.14,13.54,49.07,49.07,0,0,1-5.79,10.57,38.77,38.77,0,0,1-7.23,8,82.7,82.7,0,0,1-8.26,5.91,38.07,38.07,0,0,1-10.54,4.24,55.47,55.47,0,0,1-5.47,1.27c-5.26.77-10.56.54-15.84.48-1.71,0-3.42,0-5.12,0-1.49,0-3,.09-4.46.08-1.81,0-3.63-.16-5.45-.13-2.63,0-5.26.21-7.9.25s-5.29,0-7.93,0-5.29.06-7.93.06c-3.91,0-7.82-.05-11.73-.05-2.15,0-4.29.07-6.44.08-3.64,0-7.28,0-10.91,0s-7.27.09-10.91.11c-1.87,0-3.74-.06-5.61-.05-4.08,0-8.15.1-12.23.1-3.69,0-7.38-.19-11.07,0a52.32,52.32,0,0,1-12.37-.81,48.49,48.49,0,0,1-6.79-1.57,50,50,0,0,1-10.83-5.28,46.19,46.19,0,0,1-18-21.17,43.63,43.63,0,0,1-3.93-16.68c-.23-4.61-.08-9.24-.11-13.87,0-4.79-.09-9.58-.13-14.37,0-1.65,0-3.3,0-5,0-3.3.09-6.6.09-9.91,0-2.86-.06-5.72-.08-8.59,0-2.64,0-5.28,0-7.93,0-3.74-.12-7.49-.13-11.23s.08-7.49.07-11.24c0-4.3-.1-8.59-.12-12.89,0-4-.06-8,0-12.06.07-2.7.29-5.4.62-8.08a34.91,34.91,0,0,1,1.15-5,39.59,39.59,0,0,1,1.76-5.5A52.25,52.25,0,0,1,52.1,69.78,53.27,53.27,0,0,1,62.54,59.65a45.58,45.58,0,0,1,8.51-4.79,43.44,43.44,0,0,1,12.07-3.4,73.83,73.83,0,0,1,7.57-.64c3.35-.1,6.71,0,10.07,0,2,0,4.08-.08,6.11-.08,3.58,0,7.16.06,10.74,0,6.49,0,13-.09,19.48-.11,4.85,0,9.69,0,14.54,0s9.69-.17,14.54-.18c5.06,0,10.13.09,15.2.1,4,0,7.93,0,11.9-.08,2.48,0,4.95,0,7.43-.1A3.1,3.1,0,0,0,201.67,50.08ZM104.42,144a23.89,23.89,0,0,0-.15-7.78c-.44-2.86-2-4.91-3.76-6.86a14.2,14.2,0,0,0-7.68-4A23.31,23.31,0,0,0,79,126c-5.08,2-8.26,5.41-9.21,10.94-.53,3.15,1.71,7.15,5.43,7.32,2.55.11,5.06-.8,6.32-3.07.27-.49.47-1,.77-1.47,1.16-1.81,2.38-3.27,5-3.15,2.91.15,4.8,2.09,4.5,5a10.42,10.42,0,0,1-2.75,5.9c-1.88,2.17-3.72,4.39-5.59,6.56-3.71,4.3-7.4,8.61-11.15,12.87a9.87,9.87,0,0,0-2.76,6.93c.12,3.13,2.6,5.86,6.55,5.89l7.76.05c3.14,0,6.28,0,9.42,0,2.48,0,5-.13,7.44-.2a4.61,4.61,0,0,0,4.28-2.89c2-4.5-1-8.84-5.86-8.77-3.69.06-7.38,0-11.06,0-.2,0-.56-.06-.57-.13a1,1,0,0,1,.12-.75c.69-.78,1.47-1.49,2.16-2.27,3.53-4,7.13-8,10.54-12.14C102.33,150.06,104.07,147.28,104.42,144ZM172,156.78a9.5,9.5,0,0,1-.33,1.77c-.14.36-.5.87-.8.89a20.48,20.48,0,0,1-3.13-.07c-.78-.06-1.08-.39-.62-1.21.78-1.38,1.51-2.81,2.2-4.24,1.83-3.76,3.62-7.55,5.46-11.31,1.5-3.07,3.19-6.05,4.55-9.18,1-2.34,1.24-5.57-1.72-7.52-3.43-2.25-7.23-1.43-9,2.25-.63,1.28-1.35,2.52-2,3.79q-2.22,4.35-4.39,8.72-2.25,4.59-4.44,9.23c-2.12,4.47-4.73,8.71-6.32,13.44a6,6,0,0,0,1,6c1.65,2.15,4.05,2.46,6.41,2.55,3.78.15,7.58,0,11.38,0,1.23,0,1.48.24,1.68,1.54a6.69,6.69,0,0,1,.12,1,5.14,5.14,0,0,0,2.73,4.6c3.55,2.06,9.11.52,9.46-4.55.21-3.12.1-2.48,3-2.77a4.81,4.81,0,0,0,3.29-1.37,6.76,6.76,0,0,0,1.65-6.32,5.44,5.44,0,0,0-4.62-4.39c-.72-.12-1.42-.27-2.14-.36a1.15,1.15,0,0,1-1.16-1.3c-.09-3.85-1.44-5.68-5.09-6.41a5.89,5.89,0,0,0-4.46.67A5.55,5.55,0,0,0,172,156.78ZM125.8,179.72a18.12,18.12,0,0,0,9.49-.4c6.29-2.09,10.42-6.14,11.34-12.86a75.67,75.67,0,0,0,.51-9.41q.08-7.68-.1-15.35c-.11-4.42-1.22-8.46-4.43-11.8a18.08,18.08,0,0,0-11.34-5.25,19.17,19.17,0,0,0-8.61,1.1c-5.79,2.07-9.46,6-10.65,12a33.28,33.28,0,0,0-.33,6.25c0,3.69,0,7.38,0,11.07A79.18,79.18,0,0,0,112,166a14.77,14.77,0,0,0,2.46,6.79A15.61,15.61,0,0,0,125.8,179.72Zm105.71-37a14.38,14.38,0,0,0,.33-3.3c-.63-5-2.65-9.14-7.1-12a19.64,19.64,0,0,0-11.66-3.07,21,21,0,0,0-9.77,2.82,14.78,14.78,0,0,0-6.14,7,16.76,16.76,0,0,0-1.22,6,13.8,13.8,0,0,0,3.51,9.55c.47.58,1.37,1.15,1.36,1.71s-.88,1.16-1.38,1.74a15,15,0,0,0-3.9,8.25,21.41,21.41,0,0,0,.58,6.55,13.14,13.14,0,0,0,6,8.78,19.34,19.34,0,0,0,10.28,3.2c4.28.09,8.35-.39,12.18-2.43a14,14,0,0,0,5.93-6.07,15.74,15.74,0,0,0,1.85-8.48,22.41,22.41,0,0,0-.7-4.72c-.74-2.41-2.51-4.25-4.12-6.13-.58-.66-.6-.89,0-1.57C229.46,148.31,231.46,146,231.51,142.76Z" transform="translate(-42.22 -50.08)"/><path class="cls-2" d="M128.4,168.65c-2-.13-3.05-1.5-3.58-3.21a15.87,15.87,0,0,1-.55-4.08c-.09-2.48,0-5,0-7.44,0-3.81,0-7.62.11-11.42a14.13,14.13,0,0,1,.65-3.87c.81-2.5,5.46-4,7.77-1.29a5.86,5.86,0,0,1,1.6,4.19c-.13,4.79.08,9.59.14,14.39,0,2.54,0,5.08.06,7.62C134.67,166.8,131,169.52,128.4,168.65Z" transform="translate(-42.22 -50.08)"/><path class="cls-3" d="M208.54,140.63c.84-3.88,2.92-5.07,6.16-4.78,2.77.24,5.24,3.54,4.64,6-.8,3.3-2.75,5-6,4.6A5.16,5.16,0,0,1,208.54,140.63Z" transform="translate(-42.22 -50.08)"/><path class="cls-4" d="M212.94,168.25a5.64,5.64,0,0,1-4.55-6.62,6.1,6.1,0,0,1,6.76-4.3c2.58.52,4.89,4.11,4.36,6.54A5.79,5.79,0,0,1,212.94,168.25Z" transform="translate(-42.22 -50.08)"/></svg>