<svg id="Layer_1" data-name="Layer 1" xmlns="http://www.w3.org/2000/svg" viewBox="0 0 654.63 648"><defs><style>.cls-1{fill:#f9f7f0;}.cls-2{fill:#b6aca1;}.cls-3{fill:#c7c0b5;}</style></defs><path class="cls-1" d="M399.53,724H718.59c5.75,0,8.54-2.77,8.54-8.56V85.19c0-6.43-2.72-9.19-9.07-9.19Q399.51,76,80.93,76c-7.37,0-8.43,3.3-8.43,8.36q.15,315.63.08,631.24c0,6.62,1.72,8.37,8.23,8.37Z" transform="translate(-72.5 -76)"/><path class="cls-2" d="M399.53,724H80.81c-6.51,0-8.23-1.75-8.23-8.37q0-315.61-.08-631.24c0-5.06,1.06-8.36,8.43-8.36Q399.5,76,718.06,76c6.35,0,9.07,2.76,9.07,9.19V715.44c0,5.79-2.79,8.56-8.54,8.56ZM320.66,233.09h61.51c6.28,0,8.52-2.2,8.52-8.36V104c0-6.16-2.24-8.35-8.53-8.35h-123c-6.28,0-8.52,2.19-8.52,8.36V224.74c0,6.16,2.24,8.35,8.52,8.35Zm-.16,314.18H382c6.5,0,8.68-2.14,8.68-8.53V418.33c0-6.27-2.2-8.51-8.36-8.51H259c-6.16,0-8.35,2.24-8.35,8.53V538.76c0,6.38,2.18,8.51,8.69,8.51Zm.08-157.09h61.83c5.63,0,8.28-2.57,8.28-8.07V260.74c0-5.61-2.36-8-7.88-8H258.5c-5.52,0-7.88,2.4-7.88,8V382.1c0,5.76,2.34,8.08,8.14,8.08Zm.2,176.73H258.63c-5.6,0-8,2.36-8,7.88V696.48c0,5.53,2.4,7.88,8,7.88h124c5.42,0,8.08-2.61,8.08-7.94V575.05c0-5.79-2.33-8.14-8.08-8.14ZM161.27,547.27h61.2c6.27,0,8.51-2.2,8.51-8.36V418.15c0-6-2.25-8.33-8.22-8.33H100.37c-6,0-8.15,2.12-8.15,8V539.23c0,5.72,2.36,8,8.18,8Zm0-314.18h61.85c5.39,0,7.87-2.41,7.87-7.69q0-61,0-122c0-5.3-2.47-7.71-7.86-7.71q-61.51,0-123,0c-5.52,0-7.87,2.4-7.87,8V225.05c0,5.72,2.36,8,8.18,8Zm318.64,0h60.53c6.48,0,8.66-2.15,8.66-8.55V104.13c0-6.27-2.19-8.49-8.38-8.49q-61,0-122,0c-6.05,0-8.33,2.25-8.33,8.21V224.92c0,5.81,2.32,8.17,8.05,8.17Zm0,19.64H419c-6.5,0-8.68,2.14-8.68,8.52V381.66c0,6.28,2.19,8.52,8.36,8.52H540.74c6.06,0,8.35-2.24,8.35-8.2V260.92c0-6-2.29-8.19-8.36-8.19Zm158.4,0H577.41c-6.5,0-8.68,2.14-8.68,8.52V381.66c0,6.28,2.2,8.52,8.36,8.52h122c6.15,0,8.35-2.24,8.35-8.52V261.25c0-6.39-2.18-8.52-8.69-8.52ZM479.53,547.27h61.52c5.63,0,8-2.35,8-7.85q0-60.87,0-121.72c0-5.53-2.4-7.88-8-7.88H418.37c-5.72,0-8,2.36-8,8.18V539.07c0,6,2.29,8.2,8.34,8.2Zm.34,19.64H419c-6.5,0-8.68,2.14-8.68,8.52V695.84c0,6.28,2.19,8.52,8.36,8.52h122c6.17,0,8.36-2.24,8.36-8.52V575.43c0-6.38-2.18-8.52-8.69-8.52ZM637.94,704.36h61.51c5.63,0,8-2.34,8-7.85q0-60.87,0-121.72c0-5.52-2.41-7.88-8-7.88H576.77c-5.72,0-8,2.37-8,8.18V696.16c0,6,2.29,8.2,8.35,8.2Zm.12-471.27q30.91,0,61.83,0c5.1,0,7.59-2.51,7.6-7.63q0-61,0-122c0-5.21-2.59-7.77-7.86-7.77q-61.5,0-123,0c-5.53,0-7.89,2.4-7.89,8V225c0,5.75,2.35,8.07,8.15,8.07Zm.34,176.73H577.22c-6.27,0-8.49,2.19-8.49,8.38V538.93c0,6.06,2.24,8.34,8.2,8.34H699.29c6,0,8.2-2.29,8.2-8.35V418.2c0-6.05-2.39-8.38-8.56-8.38ZM161.75,252.73H100.57c-6.06,0-8.35,2.24-8.35,8.19V382c0,6,2.28,8.22,8.32,8.22h122c5.9,0,8.42-2.47,8.42-8.26v-121c0-5.81-2.32-8.16-8.06-8.16Zm-.39,451.63h61.5c5.57,0,8.12-2.58,8.12-8.22v-121c0-5.82-2.32-8.19-8-8.19H100.28c-5.74,0-8.06,2.35-8.06,8.16v121c0,6,2.28,8.25,8.29,8.25Z" transform="translate(-72.5 -76)"/><path class="cls-3" d="M320.66,233.09H259.14c-6.28,0-8.52-2.19-8.52-8.35V104c0-6.17,2.24-8.36,8.52-8.36h123c6.29,0,8.53,2.19,8.53,8.35V224.73c0,6.16-2.24,8.36-8.52,8.36Z" transform="translate(-72.5 -76)"/><path class="cls-3" d="M320.5,547.27H259.31c-6.51,0-8.69-2.13-8.69-8.51V418.35c0-6.29,2.19-8.53,8.35-8.53H382.33c6.16,0,8.36,2.24,8.36,8.51V538.74c0,6.39-2.18,8.53-8.68,8.53Z" transform="translate(-72.5 -76)"/><path class="cls-3" d="M320.58,390.18H258.76c-5.8,0-8.14-2.32-8.14-8.08V260.74c0-5.61,2.36-8,7.88-8H382.81c5.52,0,7.88,2.4,7.88,8V382.11c0,5.5-2.65,8.07-8.28,8.07Z" transform="translate(-72.5 -76)"/><path class="cls-3" d="M320.78,566.91h61.83c5.75,0,8.08,2.35,8.08,8.14V696.42c0,5.33-2.66,7.94-8.08,7.94h-124c-5.61,0-8-2.35-8-7.88V574.79c0-5.52,2.41-7.88,8-7.88Z" transform="translate(-72.5 -76)"/><path class="cls-3" d="M161.27,547.27H100.4c-5.82,0-8.18-2.32-8.18-8V417.82c0-5.88,2.17-8,8.15-8H222.76c6,0,8.22,2.28,8.22,8.33V538.91c0,6.16-2.24,8.36-8.51,8.36Z" transform="translate(-72.5 -76)"/><path class="cls-3" d="M161.26,233.09H100.4c-5.82,0-8.18-2.32-8.18-8V103.66c0-5.62,2.35-8,7.87-8q61.51,0,123,0c5.39,0,7.86,2.41,7.86,7.71q0,61,0,122.05c0,5.28-2.48,7.68-7.87,7.69Z" transform="translate(-72.5 -76)"/><path class="cls-3" d="M479.9,233.09H418.38c-5.73,0-8.05-2.36-8.05-8.17V103.85c0-6,2.28-8.21,8.33-8.21q61,0,122.05,0c6.19,0,8.38,2.22,8.38,8.49V224.54c0,6.4-2.18,8.55-8.66,8.55Z" transform="translate(-72.5 -76)"/><path class="cls-3" d="M479.87,252.73h60.86c6.07,0,8.36,2.24,8.36,8.19V382c0,6-2.29,8.2-8.35,8.2h-122c-6.17,0-8.36-2.24-8.36-8.52V261.25c0-6.38,2.18-8.52,8.68-8.52Z" transform="translate(-72.5 -76)"/><path class="cls-3" d="M638.27,252.73H698.8c6.51,0,8.69,2.13,8.69,8.52V381.66c0,6.28-2.2,8.52-8.35,8.52h-122c-6.16,0-8.36-2.24-8.36-8.52V261.25c0-6.38,2.18-8.52,8.68-8.52Z" transform="translate(-72.5 -76)"/><path class="cls-3" d="M479.53,547.27H418.67c-6.05,0-8.34-2.24-8.34-8.2V418c0-5.82,2.32-8.18,8-8.18h122.7c5.62,0,8,2.35,8,7.88q0,60.85,0,121.72c0,5.5-2.41,7.85-8,7.85Z" transform="translate(-72.5 -76)"/><path class="cls-3" d="M479.87,566.91H540.4c6.51,0,8.69,2.14,8.69,8.52V695.84c0,6.28-2.19,8.52-8.36,8.52h-122c-6.17,0-8.36-2.24-8.36-8.52V575.43c0-6.38,2.18-8.52,8.68-8.52Z" transform="translate(-72.5 -76)"/><path class="cls-3" d="M637.94,704.36H577.08c-6.06,0-8.35-2.24-8.35-8.2V575.09c0-5.81,2.32-8.18,8-8.18h122.7c5.61,0,8,2.36,8,7.88q0,60.86,0,121.72c0,5.51-2.41,7.85-8,7.85Z" transform="translate(-72.5 -76)"/><path class="cls-3" d="M638.06,233.09H576.88c-5.8,0-8.15-2.32-8.15-8.07V103.64c0-5.6,2.36-8,7.89-8q61.5,0,123,0c5.27,0,7.86,2.56,7.86,7.77q0,61,0,122c0,5.12-2.5,7.63-7.6,7.63Q669,233.11,638.06,233.09Z" transform="translate(-72.5 -76)"/><path class="cls-3" d="M638.4,409.82h60.53c6.17,0,8.56,2.33,8.56,8.38V538.92c0,6.06-2.24,8.35-8.2,8.35H576.93c-6,0-8.2-2.28-8.2-8.34V418.2c0-6.19,2.22-8.38,8.49-8.38Z" transform="translate(-72.5 -76)"/><path class="cls-3" d="M161.75,252.73h61.17c5.74,0,8.06,2.35,8.06,8.16v121c0,5.79-2.52,8.26-8.42,8.26h-122c-6,0-8.32-2.25-8.32-8.22v-121c0-6,2.29-8.19,8.35-8.19Z" transform="translate(-72.5 -76)"/><path class="cls-3" d="M161.36,704.36H100.51c-6,0-8.29-2.26-8.29-8.25v-121c0-5.81,2.32-8.16,8.06-8.16H223c5.71,0,8,2.37,8,8.19v121c0,5.64-2.55,8.22-8.12,8.22Z" transform="translate(-72.5 -76)"/></svg>